<svg fill="none" height="48" viewBox="0 0 48 48" width="48" xmlns="http://www.w3.org/2000/svg"><circle cx="24.334" cy="24" fill="#a849ff" fill-opacity=".3" r="24"/><path clip-rule="evenodd" d="m27.8609 11.585c0-1.98994-1.6112-3.59477-3.609-3.59477-1.9979 0-3.609 1.66902-3.609 3.59477 0 1.99 1.6111 3.5949 3.609 3.5949 1.9978 0 3.609-1.6049 3.609-3.5949zm-5.9687 11.0623c-.0455 1.2623-.1021 2.8315-.3025 3.6298-.6044 2.7691-3.8549 10.0543-4.2572 10.9504-.1434.2648-.2248.568-.2248.8903 0 1.0341.8383 1.8724 1.8725 1.8724.6785 0 1.2728-.3609 1.6012-.9013l.0615-.1015 3.6412-7.7674s3.2688 6.7014 3.6397 7.4391c.371.7376.9471 1.3311 1.793 1.3311 1.0342 0 1.8725-.8383 1.8725-1.8724 0-.3227-.2254-.8913-.2254-.8913-.4058-.9007-3.6659-8.1813-4.2701-10.9494-.1963-.7823-.2468-2.3049-.2882-3.5535-.0129-.3906-.025-.7543-.0403-1.0602-.0645-.4494.2578-.8345.6444-.9629l7.9269-2.3752c.9667-.2568 1.5468-1.348 1.289-2.3109s-1.3534-1.5407-2.3201-1.2839c0 0-7.4436 2.3752-10.0214 2.3752-2.5779 0-9.8281-2.311-9.8281-2.311-.9667-.2568-2.0623.1926-2.3845 1.1555s.2578 2.0542 1.2889 2.3751l7.9269 2.3752c.3867.1284.6445.5135.6445.9629-.0144.2859-.0265.6223-.0396.9839z" fill="#a470d5" fill-rule="evenodd"/></svg>