<svg fill="none" height="32" viewBox="0 0 33 32" width="33" xmlns="http://www.w3.org/2000/svg" xmlns:xlink="http://www.w3.org/1999/xlink"><clipPath id="a"><path d="m.5 0h31.9995v32h-31.9995z"/></clipPath><mask id="b" height="25" maskUnits="userSpaceOnUse" width="33" x="0" y="4"><path d="m32.5034 4.00195h-31.999494v24.77385h31.999494z" fill="#fff"/></mask><g clip-path="url(#a)"><g mask="url(#b)"><path d="m27.5928 6.20817c-2.0395-.93528-4.2266-1.62435-6.5134-2.01901-.0416-.00762-.0832.01141-.1047.04948-.2812.49999-.5928 1.15226-.811 1.66494-2.4595-.368-4.9064-.368-7.3156 0-.2182-.52407-.5411-1.16495-.8236-1.66494-.0215-.0368-.0631-.05583-.1047-.04948-2.28549.39339-4.47259 1.08247-6.51339 2.01901-.01767.00761-.03281.02031-.04286.0368-4.14847 6.19403-5.284904 12.23593-4.727406 18.20283.002523.0292.01892.0571.041624.0749 2.737042 2.0088 5.388322 3.2284 7.990382 4.0367.04164.0127.08577-.0025.11227-.0368.61552-.84 1.16419-1.7258 1.63468-2.6573.0277-.0546.0012-.1193-.0555-.1409-.87033-.3299-1.69902-.7322-2.49617-1.189-.06305-.0368-.0681-.127-.0101-.1701.16775-.1256.33555-.2563.49573-.3883.02898-.0241.06936-.0292.10343-.014 5.23691 2.3896 10.90651 2.3896 16.08161 0 .0341-.0165.0745-.0114.1047.0127.1602.132.328.264.497.3896.058.0431.0542.1333-.0088.1701-.7972.4657-1.6259.8591-2.4974 1.1878-.0568.0215-.082.0875-.0542.1421.4805.9302 1.0292 1.8159 1.6333 2.656.0253.0356.0707.0508.1123.0381 2.6147-.8083 5.2659-2.0279 8.003-4.0367.024-.0178.0391-.0444.0416-.0736.6672-6.8985-1.1175-12.8907-4.7312-18.20287-.0088-.01775-.0239-.03045-.0416-.03806zm-16.3957 14.60643c-1.57667 0-2.87581-1.4467-2.87581-3.2233 0-1.7767 1.27394-3.2233 2.87581-3.2233 1.6144 0 2.901 1.4593 2.8758 3.2233 0 1.7766-1.274 3.2233-2.8758 3.2233zm10.6328 0c-1.5766 0-2.8758-1.4467-2.8758-3.2233 0-1.7767 1.2739-3.2233 2.8758-3.2233 1.6145 0 2.901 1.4593 2.8758 3.2233 0 1.7766-1.2613 3.2233-2.8758 3.2233z" fill="#5865f2"/></g></g></svg>