<svg fill="none" height="32" viewBox="0 0 32 32" width="32" xmlns="http://www.w3.org/2000/svg"><path d="m16.0001 0c-8.83544 0-16.0001 7.17472-16.0001 16.0256 0 7.0805 4.58452 13.0875 10.9419 15.2066.7996.1483 1.0932-.3477 1.0932-.7709 0-.3822-.0149-1.6446-.0218-2.9837-4.45121.9694-5.39047-1.8908-5.39047-1.8908-.72784-1.8523-1.77653-2.3449-1.77653-2.3449-1.45169-.9946.10943-.9741.10943-.9741 1.60669.113 2.45269 1.6514 2.45269 1.6514 1.42705 2.4499 3.74298 1.7417 4.65608 1.3322.1436-1.0358.5582-1.7427 1.0158-2.1429-3.55382-.4053-7.2897-1.7794-7.2897-7.9199 0-1.7497.62503-3.1792 1.64856-4.3015-.16613-.4037-.71379-2.03361.15499-4.24101 0 0 1.34359-.4307 4.40115 1.64268 1.2763-.35507 2.6451-.53314 4.0048-.53924 1.3598.0061 2.7296.18417 4.0083.53924 3.0539-2.07338 4.3956-1.64268 4.3956-1.64268.8709 2.2074.323 3.83731.1568 4.24101 1.026 1.1223 1.6467 2.5518 1.6467 4.3015 0 6.1551-3.743 7.5104-7.3058 7.9071.5739.4973 1.0852 1.4726 1.0852 2.9677 0 2.1443-.0185 3.87-.0185 4.3979 0 .4264.288.9261 1.099.7688 6.3539-2.1215 10.9326-8.1264 10.9326-15.2045 0-8.85088-7.1636-16.0256-15.9999-16.0256zm-10.00753 22.8288c-.03524.0796-.1603.1034-.27423.0488-.11605-.0523-.18123-.1608-.1436-.2407.03444-.082.15976-.1048.27555-.0499.11631.0523.18255.1619.14228.2418zm.78703.7033c-.07631.0709-.22548.038-.32669-.074-.10466-.1117-.12427-.2611-.0469-.3331.07869-.0708.22336-.0376.32828.0741.10466.113.12506.2614.04531.333zm.53993.9c-.09803.0682-.25833.0042-.35742-.1383-.09804-.1425-.09804-.3134.00211-.3819.09936-.0684.25728-.0069.35769.1346.09777.1449.09777.3158-.00238.3856zm.91314 1.0422c-.0877.0969-.27449.0709-.41121-.0613-.1399-.1292-.17885-.3126-.09088-.4095.08876-.0971.27661-.0698.41439.0613.13884.129.18123.3137.0877.4095zm1.18014.3519c-.03868.1255-.21858.1826-.39981.1292-.18097-.0549-.2994-.2019-.26284-.3288.03762-.1263.21832-.1858.40088-.1287.1807.0547.2994.2006.26177.3283zm1.34309.1492c.0045.1322-.1492.2418-.3394.2442-.1913.0042-.3461-.1027-.3482-.2328 0-.1334.1502-.242.3415-.2452.1903-.0037.3461.1025.3461.2338zm1.3194-.0506c.0228.1289-.1095.2614-.2984.2967-.1857.0339-.3577-.0457-.3812-.1736-.0231-.1322.1115-.2646.297-.2988.1892-.0329.3585.0446.3826.1757z" fill="#161614"/></svg>