<svg fill="none" height="32" viewBox="0 0 33 32" width="33" xmlns="http://www.w3.org/2000/svg" xmlns:xlink="http://www.w3.org/1999/xlink"><clipPath id="a"><path d="m.5 0h32v32h-32z"/></clipPath><g clip-path="url(#a)" clip-rule="evenodd" fill-rule="evenodd"><path d="m17 7.87059c0-1.38845.9812-2.58337 2.3431-2.8535l10.1818-2.01954c1.7989-.35679 3.4751 1.01962 3.4751 2.8535v16.28335c0 1.3885-.9812 2.5834-2.3431 2.8535l-10.1818 2.0195c-1.7989.3568-3.4751-1.0196-3.4751-2.8535z" fill="#b7f0ef" opacity=".7"/><path d="m1 5.85245c0-1.83388 1.67623-3.2103 3.47507-2.8535l10.18183 2.01953c1.3619.27013 2.3431 1.46506 2.3431 2.8535v16.28332c0 1.8339-1.6762 3.2103-3.4751 2.8535l-10.18179-2.0195c-1.36192-.2701-2.34311-1.4651-2.34311-2.8535z" fill="#87e6e5"/><path d="m15.543 5.71289s1.2727.25 1.8572.86364c.5845.61363 1.0519 2.45454 1.0519 2.45454v17.93183c0 1.8523.9254 4.4545.9254 4.4545l-1.9773-2.5227-1.1427 2.5227s-.7145-2.3409-.7145-4.2954c0-1.9546 0-21.40911 0-21.40911z" fill="#61c1fd"/></g></svg>