<svg fill="none" height="32" viewBox="0 0 32 32" width="32" xmlns="http://www.w3.org/2000/svg"><path d="m31.3313 8.44657c-.368-1.35659-1.4522-2.42485-2.8291-2.78741-2.4955-.6589-12.5022-.6589-12.5022-.6589s-10.00667 0-12.5022.6589c-1.37678.36256-2.46115 1.43082-2.829122 2.78741-.668678 2.45873-.668678 7.58873-.668678 7.58873s0 5.1299.668678 7.5889c.367972 1.3564 1.452342 2.4247 2.829122 2.7874 2.49553.6587 12.5022.6587 12.5022.6587s10.0067 0 12.5022-.6587c1.3769-.3627 2.4611-1.431 2.8291-2.7874.6687-2.459.6687-7.5889.6687-7.5889s0-5.13-.6687-7.58873z" fill="#ed1d24"/><path d="m12.7266 20.6934 8.3636-4.6574-8.3636-4.6579z" fill="#fff"/></svg>